G04 #@! TF.FileFunction,Legend,Bot*
%FSLAX46Y46*%
G04 Gerber Fmt 4.6, Leading zero omitted, Abs format (unit mm)*
G04 Created by KiCad (PCBNEW (2014-12-13 BZR 5321)-product) date Mon 15 Dec 2014 20:29:37 SAST*
%MOMM*%
G01*
G04 APERTURE LIST*
%ADD10C,0.100000*%
%ADD11C,0.150000*%
G04 APERTURE END LIST*
D10*
D11*
X155067000Y-86868000D02*
X155067000Y-86995000D01*
X155067000Y-86995000D02*
X149733000Y-86995000D01*
X149733000Y-83185000D02*
X155067000Y-83185000D01*
X155067000Y-83185000D02*
X155067000Y-86868000D01*
X155067000Y-84582000D02*
X154559000Y-84582000D01*
X154559000Y-84582000D02*
X154559000Y-85598000D01*
X154559000Y-85598000D02*
X155067000Y-85598000D01*
X149733000Y-83185000D02*
X149733000Y-86995000D01*
X153376190Y-84653381D02*
X153376190Y-83653381D01*
X152328571Y-84558143D02*
X152376190Y-84605762D01*
X152519047Y-84653381D01*
X152614285Y-84653381D01*
X152757143Y-84605762D01*
X152852381Y-84510524D01*
X152900000Y-84415286D01*
X152947619Y-84224810D01*
X152947619Y-84081952D01*
X152900000Y-83891476D01*
X152852381Y-83796238D01*
X152757143Y-83701000D01*
X152614285Y-83653381D01*
X152519047Y-83653381D01*
X152376190Y-83701000D01*
X152328571Y-83748619D01*
X151376190Y-84653381D02*
X151947619Y-84653381D01*
X151661905Y-84653381D02*
X151661905Y-83653381D01*
X151757143Y-83796238D01*
X151852381Y-83891476D01*
X151947619Y-83939095D01*
X157066667Y-86272667D02*
X156590476Y-86272667D01*
X157161905Y-86558381D02*
X156828572Y-85558381D01*
X156495238Y-86558381D01*
X156304762Y-85558381D02*
X155733333Y-85558381D01*
X156019048Y-86558381D02*
X156019048Y-85558381D01*
X155542857Y-85558381D02*
X154971428Y-85558381D01*
X155257143Y-86558381D02*
X155257143Y-85558381D01*
X154638095Y-86558381D02*
X154638095Y-85558381D01*
X154161905Y-86558381D02*
X154161905Y-85558381D01*
X153590476Y-86558381D01*
X153590476Y-85558381D01*
X152923810Y-86082190D02*
X152923810Y-86558381D01*
X153257143Y-85558381D02*
X152923810Y-86082190D01*
X152590476Y-85558381D01*
X151733333Y-86558381D02*
X152304762Y-86558381D01*
X152019048Y-86558381D02*
X152019048Y-85558381D01*
X152114286Y-85701238D01*
X152209524Y-85796476D01*
X152304762Y-85844095D01*
X151400000Y-85558381D02*
X150780952Y-85558381D01*
X151114286Y-85939333D01*
X150971428Y-85939333D01*
X150876190Y-85986952D01*
X150828571Y-86034571D01*
X150780952Y-86129810D01*
X150780952Y-86367905D01*
X150828571Y-86463143D01*
X150876190Y-86510762D01*
X150971428Y-86558381D01*
X151257143Y-86558381D01*
X151352381Y-86510762D01*
X151400000Y-86463143D01*
X150400000Y-86272667D02*
X149923809Y-86272667D01*
X150495238Y-86558381D02*
X150161905Y-85558381D01*
X149828571Y-86558381D01*
X149495238Y-86177429D02*
X148733333Y-86177429D01*
X148304762Y-86510762D02*
X148161905Y-86558381D01*
X147923809Y-86558381D01*
X147828571Y-86510762D01*
X147780952Y-86463143D01*
X147733333Y-86367905D01*
X147733333Y-86272667D01*
X147780952Y-86177429D01*
X147828571Y-86129810D01*
X147923809Y-86082190D01*
X148114286Y-86034571D01*
X148209524Y-85986952D01*
X148257143Y-85939333D01*
X148304762Y-85844095D01*
X148304762Y-85748857D01*
X148257143Y-85653619D01*
X148209524Y-85606000D01*
X148114286Y-85558381D01*
X147876190Y-85558381D01*
X147733333Y-85606000D01*
M02*
